<svg height="512" viewBox="0 0 58 58" width="512" xmlns="http://www.w3.org/2000/svg"><g id="009---VR-Design" fill="none"><path id="Path" d="m34 5-1 1h-8l-1-1v-3c0-1.1045695.8954305-2 2-2h6c1.1045695 0 2 .8954305 2 2z" fill="#db2936"/><path id="Path" d="m52 22v-5c0-1.6568542-1.3431458-3-3-3h-40c-1.65685425 0-3 1.3431458-3 3v5z" fill="#8b93a2"/><path id="Path" d="m35.36 55h-12.72v-10h12.36z" fill="#8b93a2"/><path id="Path" d="m34 20h20c2.209139 0 4 1.790861 4 4v30c0 2.209139-1.790861 4-4 4h-14.63c-1.4618185-.0011752-2.8069994-.7983195-3.51-2.08l-3.9-7.16c-.5896162-1.0847557-1.7253574-1.7600994-2.96-1.7600994s-2.3703838.6753437-2.96 1.7600994l-3.9 7.16c-.7030006 1.2816805-2.0481815 2.0788248-3.51 2.08h-14.63c-2.209139 0-4-1.790861-4-4v-30c0-2.209139 1.790861-4 4-4h20" fill="#ced2dc"/><path id="Path" d="m34 5v19.43c-.0005512.1934944-.0309072.385749-.09.57h-9.82c-.0590928-.184251-.0894488-.3765056-.09-.57v-19.43z" fill="#ffc306"/><path id="Path" d="m33.91 25c-.0492033.1714833-.1197557.3361057-.21.49l-3.85 6.04c-.1823393.2942169-.5038624.4732173-.85.4732173s-.6676607-.1790004-.85-.4732173l-3.85-6.04c-.0902443-.1538943-.1607967-.3185167-.21-.49z" fill="#82624b"/><path id="Path" d="m23 36c0 .23-.01.45-.03.67-.3482165 4.1432025-3.8121904 7.3290154-7.97 7.33-1.3829859.0038677-2.7423543-.3584005-3.94-1.05h-.01c-.6234608-.3454931-1.19564759-.776316-1.7-1.28-.8147859-.8172519-1.44553457-1.7991742-1.85-2.88-.23526933-.6416892-.38978942-1.3101565-.46-1.99-.02853552-.265689-.04189055-.5327897-.04-.8-.00375386-3.1126111 1.80042284-5.9440837 4.6232103-7.2556603 2.8227875-1.3115765 6.1503098-.8644903 8.5267897 1.1456603.5286104.4352905.996151.9398306 1.39 1.5.6637304.9463675 1.1172208 2.0238334 1.33 3.16.0842767.4787852.1277661.9638593.13 1.45z" fill="#2885ee"/><path id="Path" d="m51 36c0 .23-.01.45-.03.67-.3482165 4.1432025-3.8121904 7.3290154-7.97 7.33-1.3829859.0038677-2.7423543-.3584005-3.94-1.05h-.01c-.6234608-.3454931-1.1956476-.776316-1.7-1.28-.8147859-.8172519-1.4455346-1.7991742-1.85-2.88-.2352693-.6416892-.3897894-1.3101565-.46-1.99-.0285355-.265689-.0418906-.5327897-.04-.8-.0037539-3.1126111 1.8004228-5.9440837 4.6232103-7.2556603 2.8227875-1.3115765 6.1503098-.8644903 8.5267897 1.1456603.5286104.4352905.996151.9398306 1.39 1.5.6637304.9463675 1.1172208 2.0238334 1.33 3.16.0842767.4787852.1277661.9638593.13 1.45z" fill="#2885ee"/><path id="Path" d="m30 5v16c0 .5522847-.4477153 1-1 1s-1-.4477153-1-1v-16z" fill="#f7ad00"/><g fill="#439cf8"><path id="Path" d="m21.54 31.39c-.0450115.0430244-.0954357.0800021-.15.11l-6.92 3.64c-.1444437.0779674-.3058591.1191798-.47.12-.3700356.0042501-.7107134-.2009309-.88-.53-.25818-.4861466-.0749278-1.089538.41-1.35l6.62-3.49c.5286104.4352905.996151.9398306 1.39 1.5z"/><path id="Path" d="m10.47 37.25-2.79 1.47c-.05630448.031904-.11693423.0554822-.18.07-.23526933-.6416892-.38978942-1.3101565-.46-1.99l2.49-1.31c.479574-.2152795 1.0439523-.0224977 1.2916033.4411892.2476509.4636868.0940145 1.0399538-.3516033 1.3188108z"/><path id="Path" d="m23 36c0 .23-.01.45-.03.67l-2.5 1.32c-.1444437.0779674-.3058591.1191798-.47.12-.3700356.0042501-.7107134-.2009309-.88-.53-.1267604-.232973-.1547392-.5070666-.0776653-.7608465s.2527544-.4660214.4876653-.5891535l2.99-1.58c.1065539-.061877.22684-.0962444.35-.1.0842767.4787852.1277661.9638593.13 1.45z"/><path id="Path" d="m16.87 39.88-5.81 3.07h-.01c-.6234608-.3454931-1.19564759-.776316-1.7-1.28.07466669-.0969248.17041953-.1755789.28-.23l6.3-3.32c.4892654-.2573056 1.0944736-.0748531 1.36.41.2566488.4887869.0686457 1.0930824-.42 1.35z"/><path id="Path" d="m49.54 31.39c-.0450115.0430244-.0954357.0800021-.15.11l-6.92 3.64c-.1444437.0779674-.3058591.1191798-.47.12-.3700356.0042501-.7107134-.2009309-.88-.53-.25818-.4861466-.0749278-1.089538.41-1.35l6.62-3.49c.5286104.4352905.996151.9398306 1.39 1.5z"/><path id="Path" d="m38.47 37.25-2.79 1.47c-.0563045.031904-.1169342.0554822-.18.07-.2352693-.6416892-.3897894-1.3101565-.46-1.99l2.49-1.31c.3167507-.1982151.7175853-.2033013 1.0392636-.0131873s.51053.5437087.4896452.9167825c-.0208848.3730739-.2480216.7033814-.5889088.8564048z"/><path id="Path" d="m51 36c0 .23-.01.45-.03.67l-2.5 1.32c-.1444437.0779674-.3058591.1191798-.47.12-.3700356.0042501-.7107134-.2009309-.88-.53-.1267604-.232973-.1547392-.5070666-.0776653-.7608465s.2527544-.4660214.4876653-.5891535l2.99-1.58c.1065539-.061877.22684-.0962444.35-.1.0842767.4787852.1277661.9638593.13 1.45z"/><path id="Path" d="m44.87 39.88-5.81 3.07h-.01c-.6234608-.3454931-1.1956476-.776316-1.7-1.28.0746667-.0969248.1704195-.1755789.28-.23l6.3-3.32c.4892654-.2573056 1.0944736-.0748531 1.36.41.2566488.4887869.0686457 1.0930824-.42 1.35z"/></g></g></svg>